<svg width="1365" height="340" viewBox="0 0 1365 340" fill="none" xmlns="http://www.w3.org/2000/svg">
<path d="M1136.02 340.943H1137.97C1137.97 340.726 1137.9 340.581 1137.75 340.436L1065.93 269.413L1065.86 269.34C1065.79 269.268 1065.72 269.268 1065.64 269.196H1065.5C1065.43 269.196 1065.43 269.196 1065.36 269.196H1065.28H1065.14C1065.07 269.196 1064.99 269.268 1064.99 269.268L1064.92 269.34L1038.96 294.51L1016.9 272.45C1016.82 272.378 1016.82 272.378 1016.75 272.378L1016.68 272.306H1016.61C1016.54 272.306 1016.54 272.306 1016.46 272.233H1016.32H1016.25H1016.17C1016.1 272.233 1016.03 272.233 1016.03 272.306C1015.96 272.306 1015.96 272.378 1015.88 272.378C1015.81 272.378 1015.81 272.45 1015.81 272.45L1015.74 272.523L955.276 340.726C955.203 340.798 955.131 340.87 955.131 340.943H957.229L1012.12 278.96L978.131 340.581C978.058 340.653 978.058 340.798 978.058 340.943H979.794L1016.54 274.403L1083.22 340.943H1085.17C1085.17 340.726 1085.1 340.581 1084.96 340.436L1050.6 306.154L1065.72 271.366L1136.02 340.943ZM1049.3 304.925L1040.04 295.667L1063.04 273.318L1049.3 304.925Z" fill="#1FAEED"/>
<path d="M1251.88 187.757C1251.81 187.395 1251.59 187.106 1251.23 187.034H1251.16C1250.87 187.034 1250.58 187.178 1250.44 187.54L1245.66 198.172L1241.18 171.411C1241.11 171.05 1240.82 170.76 1240.31 170.76C1239.95 170.833 1239.66 171.05 1239.59 171.411L1205.67 340.87H1207.33L1240.31 175.968L1248.77 226.596L1241.25 232.237C1241.03 232.382 1240.96 232.599 1240.96 232.816L1233.51 340.942H1235.1L1242.48 233.25L1248.99 228.332L1267.87 340.942H1269.53L1251.88 187.757ZM1246.1 200.993L1250.65 190.867L1264.54 311.289L1246.1 200.993Z" fill="#1FAEED"/>
<path d="M1196.84 144.289V143.638L1192.72 142.626V140.239C1192.72 136.189 1189.39 132.934 1185.42 132.934H1184.33L1181.65 76.7373H1180.06L1177.97 132.934H1176.38C1172.32 132.934 1169 136.189 1169 140.239V141.686L1165.89 143.132L1162.78 307.528V307.89L1162.13 340.943H1163.72L1164.37 307.6L1176.01 148.484L1192.36 307.673L1193.88 307.6L1196.05 180.886L1200.31 340.943H1201.91L1196.84 144.289ZM1181 96.0482L1182.74 132.934H1179.63L1181 96.0482ZM1165.02 278.164L1167.55 144.072L1175.07 140.601L1165.02 278.164ZM1175.94 138.503L1170.66 140.962V140.239C1170.66 137.057 1173.27 134.525 1176.38 134.525H1185.34C1188.53 134.525 1191.06 137.129 1191.06 140.239V141.324H1187.3L1175.94 138.503ZM1192.65 293.859L1176.88 140.384L1195.18 144.868L1192.65 293.859Z" fill="#1FAEED"/>
<path d="M1364.2 249.74H1363.41V218.206C1363.41 217.772 1363.05 217.41 1362.61 217.41H1362.4V199.401C1362.4 198.967 1362.03 198.606 1361.6 198.606H1360.01V187.829H1358.56V178.282C1358.56 177.848 1358.2 177.487 1357.77 177.487H1353.57V144.434C1353.57 144 1353.21 143.638 1352.78 143.638H1348.8C1348.37 143.638 1348 144 1348 144.434V177.487H1343.81C1343.37 177.487 1343.01 177.848 1343.01 178.282V187.829H1341.57V198.606H1339.98C1339.54 198.606 1339.18 198.967 1339.18 199.401V217.41H1338.96C1338.53 217.41 1338.17 217.772 1338.17 218.206V249.74H1337.37C1336.94 249.74 1336.58 250.102 1336.58 250.536V285.18H1312.71V250.536C1312.71 250.102 1312.35 249.74 1311.91 249.74H1311.12V218.206C1311.12 217.772 1310.76 217.41 1310.32 217.41H1310.1V199.401C1310.1 198.967 1309.74 198.606 1309.31 198.606H1307.72V188.625C1307.72 188.191 1307.36 187.829 1306.92 187.829H1306.27V178.282C1306.27 177.848 1305.91 177.487 1305.48 177.487H1301.21V144.434C1301.21 144 1300.85 143.638 1300.41 143.638H1296.44C1296 143.638 1295.64 144 1295.64 144.434V177.487H1291.44C1291.01 177.487 1290.65 177.848 1290.65 178.282V187.829H1290C1289.56 187.829 1289.2 188.191 1289.2 188.625V198.606H1287.61C1287.18 198.606 1286.82 198.967 1286.82 199.401V217.41H1286.6C1286.17 217.41 1285.8 217.772 1285.8 218.206V249.74H1285.01C1284.57 249.74 1284.21 250.102 1284.21 250.536V340.87H1285.8V251.331H1286.6V250.608C1286.53 250.608 1286.53 250.536 1286.53 250.536V250.463H1287.39V219.002H1287.61V218.278C1287.54 218.278 1287.54 218.206 1287.54 218.206V218.134H1288.41V200.197H1290V199.474C1289.93 199.474 1289.93 199.474 1289.93 199.401V199.329H1290.79V189.493H1291.37L1291.44 188.77C1291.37 188.77 1291.37 188.77 1291.37 188.697V188.625H1292.24V179.223H1296.51C1296.94 179.223 1297.3 178.861 1297.3 178.427V145.374H1299.69V178.427C1299.69 178.861 1300.05 179.223 1300.49 179.223H1304.68V188.625H1305.55V188.697C1305.55 188.77 1305.55 188.77 1305.48 188.77L1305.55 189.493H1306.13V199.401H1306.99V199.474C1306.99 199.474 1306.99 199.546 1306.92 199.546V200.269H1308.51V218.206H1309.38V218.278C1309.38 218.278 1309.38 218.351 1309.31 218.351V219.074H1309.53V250.536H1310.39V250.608C1310.39 250.608 1310.39 250.68 1310.32 250.68V251.403H1311.12V340.943H1312.71V315.773L1324.64 292.918L1336.58 315.773V340.943H1338.17V251.331H1338.96V250.608C1338.89 250.608 1338.89 250.536 1338.89 250.536V250.463H1339.76V219.002H1339.98V218.278L1339.9 218.206V218.134H1340.77V200.197H1342.36V199.474C1342.29 199.474 1342.29 199.474 1342.29 199.401V199.329H1343.16V189.493H1343.74L1343.81 188.77C1343.74 188.77 1343.74 188.697 1343.74 188.697V188.625H1344.6V179.223H1348.8C1349.23 179.223 1349.59 178.861 1349.59 178.427V145.374H1351.98V178.427C1351.98 178.861 1352.34 179.223 1352.78 179.223H1356.97V188.625H1357.84V188.697C1357.84 188.77 1357.84 188.77 1357.77 188.77L1357.84 189.493H1358.42V199.401H1359.29V199.474C1359.29 199.474 1359.29 199.546 1359.21 199.546V200.269H1360.81V218.206H1361.67V218.278C1361.67 218.278 1361.67 218.351 1361.6 218.351V219.074H1361.82V250.536H1362.69V250.608C1362.69 250.608 1362.69 250.68 1362.61 250.68V251.403H1363.41V340.943H1365V250.536C1365 250.102 1364.64 249.74 1364.2 249.74ZM1312.64 312.229V292.701H1322.83L1312.64 312.229ZM1336.5 312.229L1326.31 292.701H1336.5V312.229ZM1336.5 289.519H1312.64V286.771H1336.5V289.519Z" fill="#1FAEED"/>
<path d="M941.462 330.166H935.459V310.06C935.459 309.626 935.097 309.264 934.663 309.264H930.106V291.834C930.106 291.4 929.745 291.038 929.311 291.038H926.201V202.15C926.201 201.716 925.839 201.354 925.405 201.354H923.236V196.292C923.236 195.858 922.874 195.496 922.44 195.496H921.21C918.39 195.062 916.075 193.254 915.135 190.795C915.28 189.421 916.003 180.814 912.748 176.474V164.685H910.868V176.474C907.83 180.452 908.192 188.046 908.409 190.361C908.409 190.433 908.336 190.578 908.336 190.65C907.469 193.254 905.154 195.134 902.261 195.568H900.959C900.525 195.568 900.164 195.93 900.164 196.364L900.091 196.436L900.164 196.509V201.354H897.994C897.56 201.354 897.198 201.716 897.198 202.15V291.038H894.088C893.654 291.038 893.293 291.4 893.293 291.834V309.264H888.736C888.302 309.264 887.941 309.626 887.941 310.06V330.166H881.938C881.504 330.166 881.142 330.528 881.142 330.962V340.87H882.733V331.757H940.521V340.87H942.112V330.962C942.257 330.528 941.895 330.166 941.462 330.166ZM893.365 330.166H889.604V310.855H893.365V330.166ZM911.808 177.921C914.05 181.465 913.761 188.119 913.616 190.072H910C909.855 188.046 909.566 181.465 911.808 177.921ZM909.638 191.663H913.833C914.484 193.182 915.569 194.556 916.943 195.496H906.528C907.903 194.556 908.987 193.254 909.638 191.663ZM901.755 197.159C901.972 197.159 902.116 197.159 902.333 197.087H921.066C921.283 197.087 921.5 197.159 921.644 197.159V201.354H901.682V197.159H901.755ZM928.515 330.166H894.884V292.629H897.994V291.906C897.922 291.906 897.922 291.906 897.922 291.834V291.761H898.789V202.946H924.682V291.761H925.55V291.834L925.478 291.906V292.629H928.588V330.166H928.515ZM933.867 330.166H930.106V310.855H933.867V330.166Z" fill="#1FAEED"/>
<path d="M639.792 206.562C640.298 205.983 640.587 205.188 640.587 204.392C640.587 202.801 639.43 201.427 637.911 201.065V192.531C637.911 192.097 637.55 191.735 637.116 191.735C636.682 191.735 636.32 192.097 636.32 192.531V201.065C634.801 201.427 633.644 202.801 633.644 204.392C633.644 205.188 633.933 205.983 634.44 206.562C626.629 206.923 619.107 208.804 619.107 212.276C619.107 213.216 619.685 214.59 622.578 215.747C622.578 215.892 622.651 216.036 622.651 216.181C623.012 217.266 624.169 218.134 626.122 218.93C627.063 219.291 628.147 219.58 629.449 219.87V219.942C637.188 268.906 623.808 337.037 623.012 340.943H624.603C625.833 334.65 638.49 268.256 631.04 220.159C633.066 220.448 635.235 220.593 637.405 220.593C639.43 220.593 641.455 220.448 643.336 220.231C635.959 268.328 648.543 334.578 649.773 340.943H651.364C650.568 337.037 637.26 268.762 644.927 219.942C646.373 219.653 647.675 219.363 648.688 218.93C650.641 218.206 651.798 217.266 652.159 216.181C652.232 216.036 652.232 215.892 652.232 215.747C655.052 214.518 655.703 213.143 655.703 212.276C655.776 208.732 647.892 206.851 639.792 206.562ZM637.116 202.512C638.128 202.512 638.996 203.38 638.996 204.392C638.996 205.405 638.128 206.273 637.116 206.273C636.103 206.273 635.235 205.405 635.235 204.392C635.235 203.38 636.103 202.512 637.116 202.512ZM637.477 219.002C633.716 219.002 630.172 218.496 627.641 217.555C627.786 217.411 627.93 217.194 628.147 217.049C629.956 215.53 633.572 214.59 637.55 214.59C641.528 214.59 645.072 215.53 646.952 217.049C647.169 217.194 647.314 217.338 647.458 217.555C644.782 218.496 641.238 219.002 637.477 219.002ZM650.713 215.747C650.568 216.181 649.917 216.687 648.977 217.121C648.688 216.687 648.326 216.181 647.82 215.82C645.722 214.084 641.745 212.999 637.405 212.999C633.138 212.999 629.16 214.084 626.99 215.82C626.484 216.253 626.122 216.687 625.833 217.121C624.82 216.687 624.242 216.181 624.097 215.747C624.097 215.675 624.097 215.675 624.097 215.603V215.53C624.169 215.458 624.169 215.313 624.169 215.241C624.748 213.867 629.594 212.059 637.405 212.059C645.216 212.059 650.062 213.939 650.641 215.241C650.641 215.313 650.641 215.458 650.713 215.53C650.785 215.675 650.785 215.675 650.713 215.747ZM651.943 214.228C650.207 211.625 643.336 210.467 637.477 210.467C631.619 210.467 624.748 211.625 623.012 214.228C621.566 213.577 620.77 212.854 620.77 212.276C620.77 210.54 627.279 208.081 637.55 208.081C647.82 208.081 654.329 210.612 654.329 212.276C654.185 212.854 653.389 213.577 651.943 214.228Z" fill="#1FAEED"/>
<path d="M349.983 340.943H348.392C352.876 199.546 327.418 176.981 323.44 174.377C295.016 200.848 297.475 333.638 297.692 340.943H296.101C296.028 337.182 295.377 303.406 298.054 267.315C301.887 215.819 310.204 184.069 322.861 172.858C323.006 172.713 323.223 172.641 323.367 172.641C323.512 172.641 323.584 172.641 323.657 172.713C324.018 172.858 331.757 176.474 338.845 199.185C345.354 219.797 352.515 261.168 349.983 340.943Z" fill="#1FAEED"/>
<path d="M291.761 340.653L268.183 305.648V301.67L270.642 297.403C270.787 297.186 270.787 296.824 270.642 296.607C270.498 296.39 270.208 296.173 269.919 296.173H264.278C262.976 293.28 255.309 275.85 255.888 267.677L259.938 264.639C260.155 264.495 260.227 264.278 260.227 263.988C260.227 263.771 260.083 263.482 259.938 263.337L254.297 259.07C253.646 256.683 249.306 239.976 248.221 223.558C246.992 206.056 245.979 165.843 245.979 164.396L247.353 157.67C248.438 156.874 249.089 155.789 249.089 154.704C249.089 152.245 246.124 150.293 242.074 150.003V134.236C242.074 133.802 241.712 133.441 241.278 133.441C240.844 133.441 240.482 133.802 240.482 134.236V150.003C236.432 150.22 233.467 152.173 233.467 154.704C233.467 155.789 234.118 156.874 235.203 157.67L236.505 164.107C236.505 164.179 236.505 164.251 236.505 164.324C236.505 164.758 235.492 205.983 234.262 223.631C233.105 239.976 228.766 256.756 228.187 259.142L222.546 263.41C222.329 263.554 222.256 263.771 222.256 264.061C222.256 264.278 222.401 264.567 222.546 264.712L226.596 267.749C227.247 275.85 219.508 293.352 218.206 296.245H212.565C212.275 296.245 211.986 296.39 211.914 296.679C211.769 296.896 211.769 297.258 211.914 297.475L214.373 301.742V305.72L208.515 314.399C201.499 311.579 179.729 292.123 177.632 290.315V257.913L174.522 252.055V248.221H176.474V246.63H174.305V245.473H172.713V246.63H170.761V248.221H172.713V252.055L171.195 254.948L165.264 241.278V237.011H167.217V235.42H165.264V234.118H163.673V235.42H161.72V237.011H163.673V241.423L158.104 254.875L156.585 251.982V248.149H158.538V246.558H156.585V245.401H154.994V246.558H153.041V248.149H154.994V251.982L151.884 257.841V268.834H62.0553V257.841L58.9453 251.982V248.149H60.8981V246.558H58.9453V245.401H57.3542V246.558H55.4014V248.149H57.3542V251.982L55.8353 254.875L49.9046 241.206V236.939H51.8574V235.347H49.9046V234.046H48.3135V235.347H46.3607V236.939H48.3135V241.35L42.7444 254.803L41.2256 251.982V248.149H43.1783V246.558H41.2256V245.401H39.6344V246.558H37.6816V248.149H39.6344V251.982L36.5244 257.841V284.746C21.336 306.226 1.51884 309.915 0.289302 310.132H0.216977L0 310.204L0.216977 311.795H0.361628H0.578604C0.795581 311.795 20.7574 308.541 36.5967 287.494V291.4C21.4084 312.808 1.59116 316.569 0.361628 316.786H0.289302H0L0.216977 318.377H0.433953H0.65093C0.867906 318.377 20.7574 315.195 36.669 294.076V322.355H33.8484V340.943H35.4395V323.946H65.2376V340.943H66.8288V322.355H62.1276V280.623H151.956V322.355H148.195V340.943H149.786V323.946H179.584V340.943H181.175V322.355H177.415V292.412C182.333 296.824 200.342 312.591 207.357 315.773L190.433 340.87C190.433 340.87 190.361 340.943 190.361 341.015H192.241L215.53 306.516C215.602 306.371 215.675 306.226 215.675 306.082V301.598C215.675 301.453 215.675 301.308 215.602 301.236L213.722 297.981H218.495C218.785 297.981 219.074 297.764 219.219 297.547C219.653 296.679 228.91 276.501 227.898 267.388C227.898 267.171 227.753 266.954 227.608 266.809L224.137 264.205L229.127 260.372C229.272 260.3 229.344 260.155 229.417 259.938C229.634 259.215 234.407 241.423 235.637 223.848C236.794 207.357 237.734 170.978 237.879 165.264H244.316C244.46 170.905 245.473 207.502 246.558 223.848C247.787 241.423 252.561 259.142 252.778 259.938C252.85 260.083 252.922 260.227 253.067 260.372L258.058 264.205L254.586 266.809C254.441 266.954 254.297 267.171 254.297 267.388C253.284 276.501 262.614 296.679 262.976 297.547C263.12 297.837 263.41 297.981 263.699 297.981H268.472L266.592 301.236C266.52 301.381 266.52 301.525 266.52 301.598V306.082C266.52 306.226 266.592 306.371 266.664 306.516L289.953 341.015H291.834C291.834 340.87 291.834 340.798 291.761 340.653ZM42.7444 322.283H38.1879V258.202L40.5023 253.863L42.7444 258.202V322.283ZM54.3165 257.841V322.283H44.3356V257.841L43.757 256.683L49.2537 243.52L54.9674 256.683L54.3165 257.841ZM60.4641 322.283H55.9076V258.202L58.2221 253.863L60.4641 258.202V322.283ZM151.956 279.032H62.0553V270.498H151.884V279.032H151.956ZM158.104 322.283H153.547V258.202L155.862 253.863L158.104 258.202V322.283ZM169.676 257.841V322.283H159.695V257.841L159.116 256.683L164.613 243.52L170.327 256.683L169.676 257.841ZM175.823 322.283H171.267V258.202L173.581 253.863L175.823 258.202V322.283ZM235.854 156.296C235.42 155.934 234.913 155.428 234.913 154.704C234.913 153.041 237.806 151.594 241.133 151.594C244.46 151.594 247.353 153.041 247.353 154.704C247.353 155.355 246.919 155.934 246.413 156.296H235.854ZM244.46 163.6H237.879L236.721 157.887H245.618L244.46 163.6Z" fill="#1FAEED"/>
<path d="M411.098 284.456V340.943H409.507V285.252C406.469 282.938 403.721 281.708 401.262 281.491V340.943H399.671V279.9H400.683C402.709 279.9 404.806 280.551 407.193 281.853V230.646C403.504 228.187 400.177 226.885 397.284 226.813H396.055V225.222H396.85H402.709V165.77L398.369 163.094L397.935 162.877L398.224 162.443V139.588L397.79 139.371V102.558C397.139 102.051 396.489 101.617 395.838 101.183C395.548 100.966 395.259 100.822 394.97 100.677L394.753 100.533V1.73581C394.391 1.66349 394.029 1.59116 393.668 1.59116C393.306 1.59116 392.872 1.66349 392.511 1.73581V30.883H387.882V91.7811L387.737 91.9258C387.448 92.1427 387.159 92.3597 386.869 92.5767C386.146 93.1553 385.495 93.8062 384.916 94.4572V131.777L384.7 131.922C384.41 132.066 384.121 132.211 383.832 132.356C382.096 133.224 380.505 134.526 378.986 136.044V208.081H377.539V206.996C376.599 207.068 375.586 207.14 374.574 207.357V264.567H378.841V341.015H377.25V266.086H370.307V314.978H373.417V340.943H371.753V316.569H364.738V340.943H363.146V314.978H368.716V264.495H373.055V205.983L373.706 205.838C375.008 205.549 376.31 205.405 377.612 205.332V135.321L377.829 135.104C379.564 133.296 381.517 131.777 383.542 130.765V93.8062L383.759 93.5892C384.627 92.649 385.567 91.7811 386.508 90.9855V29.2918H391.136V0.578604L391.715 0.361628C392.438 0.144651 393.234 0 393.885 0C394.608 0 395.331 0.144651 395.982 0.361628L396.489 0.578604V99.5923C397.284 100.099 398.152 100.749 399.165 101.473L399.454 101.69V138.359L399.888 138.576V162.082L404.372 164.83V226.741H403.649C405.168 227.464 406.759 228.332 408.422 229.489L408.784 229.706V282.793C409.507 283.299 410.23 283.733 410.809 284.239L411.098 284.456Z" fill="#1FAEED"/>
<path d="M861.397 332.915L849.897 327.635L848.885 324.308L857.13 314.689L859.806 313.604L856.768 313.242C853.369 312.88 850.114 312.663 847.077 312.663C834.492 312.663 829.285 315.918 827.766 317.22L822.703 315.05L825.307 304.635L825.958 303.84L824.728 303.478C820.533 302.393 816.266 301.815 811.999 301.815C801.222 301.815 793.484 305.359 790.88 306.733C790.735 306.371 790.518 306.082 790.374 305.72L790.157 304.418L789.795 304.708C779.814 288.362 753.198 276.862 746.834 276.862C746.472 276.862 746.183 276.862 745.966 277.007C745.315 277.224 744.953 277.875 745.098 278.526C745.966 281.78 747.268 287.783 749.148 296.246C745.893 294.51 739.022 291.327 731.934 291.327C730.777 291.327 729.692 291.4 728.608 291.617L727.74 291.761L727.957 292.629C727.957 292.702 729.114 297.186 730.343 303.116C724.63 301.164 719.422 300.223 714.649 300.223C709.441 300.223 706.838 301.453 706.693 301.453L705.536 301.959L706.476 302.755C710.454 306.082 714.142 320.475 714.721 322.934L711.828 325.465H701.847L703.872 330.094L706.982 332.047H695.193V340.943H696.784V333.638H709.514L716.24 337.833L871.957 339.569L872.174 338.918L861.397 332.915ZM827.621 318.883L828.127 319.1L828.489 318.666C828.561 318.594 832.973 314.255 847.221 314.255C849.247 314.255 851.489 314.327 853.731 314.544C848.596 317.22 838.325 323.44 831.237 333.855L819.81 330.456L810.625 329.515C811.059 326.333 813.156 321.849 816.772 316.28H821.546L827.621 318.883ZM821.184 314.689H817.93C819.81 311.868 821.618 309.409 822.992 307.673L821.184 314.689ZM790.446 308.83L791.024 308.469C791.097 308.396 799.487 303.406 812.071 303.406C815.832 303.406 819.521 303.84 823.209 304.708C820.316 308.252 810.191 321.487 809.106 329.515L782.056 330.094C784.226 326.116 789.65 315.484 790.446 308.83ZM780.248 330.094H763.034C771.569 323.729 785.021 311.362 788.927 307.745C788.638 314.399 781.55 327.779 780.248 330.094ZM746.834 278.453C746.906 278.453 746.978 278.453 746.978 278.453C747.268 278.453 747.629 278.526 748.135 278.598C756.019 279.972 779.886 291.183 788.638 305.865C785.817 308.469 769.11 323.946 760.358 330.094H758.044C757.176 326.188 749.654 289.809 746.834 278.453ZM716.963 336.242L705.391 329.009L704.523 327.056H712.624L716.674 323.44L716.601 323.006C716.457 322.355 712.985 307.601 708.646 302.466C709.803 302.176 711.9 301.742 714.793 301.742C719.639 301.742 725.064 302.755 730.85 304.852C732.585 313.17 734.538 323.874 733.96 328.069L733.887 328.43L735.478 328.647L735.551 328.286C736.491 321.126 731.139 298.415 729.765 292.991C730.488 292.919 731.211 292.846 731.934 292.846C739.89 292.846 748.208 297.403 749.654 298.271C752.692 312.374 755.947 327.996 756.525 331.034L756.67 331.685H780.754L809.757 331.034L819.593 331.974L831.961 335.663L832.322 335.157C838.832 325.393 848.379 319.245 853.514 316.497L847.149 323.946L848.596 328.72L860.746 334.289L867.256 337.833L716.963 336.242Z" fill="#1FAEED"/>
<path d="M603.629 266.22C603.123 263.833 601.604 261.663 599.072 259.783C599.506 259.059 599.723 257.902 599.723 256.673C599.723 254.575 598.277 252.984 598.204 252.912C598.06 252.767 597.843 252.695 597.626 252.695C597.409 252.695 597.192 252.767 597.047 252.912C596.975 252.984 595.528 254.647 595.528 256.673C595.528 257.83 595.745 258.915 596.179 259.638C588.224 265.424 591.912 272.078 591.985 272.15C592.057 272.295 592.201 272.367 592.346 272.44V339.558H581.497V289.581C581.57 289.508 581.642 289.436 581.714 289.364C581.787 289.291 583.016 287.411 582.51 284.879C582.148 283.144 581.063 281.625 579.328 280.251C579.617 279.672 579.761 278.949 579.761 278.081C579.761 276.562 578.749 275.333 578.604 275.188C578.46 275.043 578.243 274.899 578.026 274.899C577.809 274.899 577.592 274.971 577.447 275.188C577.302 275.333 576.29 276.49 576.29 278.081C576.29 278.876 576.435 279.6 576.724 280.178C571.082 284.446 573.758 289.291 573.831 289.364C573.903 289.436 573.903 289.508 574.048 289.581V339.558H567.755V304.263C567.755 303.829 567.394 303.467 566.96 303.467H556.473C556.039 303.467 555.677 303.829 555.677 304.263V339.558H554.014V302.455C554.158 302.382 554.231 302.31 554.303 302.165C554.375 302.093 556.111 299.562 555.388 296.162C554.882 293.776 553.363 291.606 550.831 289.725C551.265 289.002 551.482 287.845 551.482 286.615C551.482 284.518 550.036 282.927 549.963 282.854C549.819 282.71 549.602 282.565 549.385 282.565C549.168 282.565 548.951 282.637 548.806 282.854C548.734 282.927 547.287 284.59 547.287 286.615C547.287 287.773 547.504 288.857 547.938 289.581C539.91 295.439 543.671 302.021 543.743 302.093C543.816 302.238 543.96 302.31 544.105 302.382V339.558H542.008V286.471C542.08 286.398 542.152 286.326 542.225 286.181C542.297 286.037 548.011 272.801 535.571 262.531C527.687 256.022 525.3 253.273 524.649 252.261C525.228 251.827 525.59 251.248 525.59 250.67C525.59 249.946 525.156 249.295 524.432 248.861V248.572C525.156 248.138 525.59 247.487 525.59 246.764C525.59 246.041 525.156 245.462 524.432 245.028C524.649 243.22 524.866 238.374 522.335 237.217C522.19 237.072 522.046 237 521.756 237C521.539 237 521.322 237.072 521.178 237.217C518.719 238.447 518.936 243.148 519.153 244.956C518.429 245.39 517.995 246.041 517.995 246.764C517.995 247.487 518.429 248.138 519.225 248.572V248.789C518.429 249.223 517.995 249.874 517.995 250.597C517.995 251.248 518.357 251.827 518.936 252.261C518.212 253.346 515.826 256.094 508.015 262.531C496.298 272.15 500.637 284.301 501.288 285.964V339.485H499.263V302.382C499.408 302.31 499.48 302.238 499.552 302.093C499.625 302.021 501.361 299.417 500.637 296.09C500.203 293.703 498.612 291.533 496.081 289.653C496.515 288.93 496.732 287.773 496.732 286.543C496.732 284.446 495.285 282.854 495.213 282.782C495.068 282.637 494.851 282.493 494.634 282.493C494.417 282.493 494.2 282.565 494.056 282.782C493.983 282.854 492.537 284.446 492.537 286.543C492.537 287.7 492.754 288.785 493.188 289.508C485.232 295.294 488.921 301.948 488.993 302.021C489.065 302.165 489.21 302.238 489.355 302.31V339.558H487.257V303.395H475.179V339.558H468.452V289.581C468.525 289.508 468.597 289.436 468.669 289.364C468.742 289.291 469.971 287.411 469.465 284.879C469.103 283.144 468.019 281.625 466.283 280.251C466.572 279.672 466.717 278.949 466.717 278.081C466.717 276.562 465.704 275.333 465.559 275.188C465.415 275.043 465.198 274.899 464.981 274.899C464.764 274.899 464.547 274.971 464.402 275.188C464.258 275.333 463.245 276.49 463.245 278.081C463.245 278.876 463.39 279.6 463.607 280.178C457.965 284.446 460.641 289.291 460.714 289.364C460.786 289.436 460.858 289.508 460.931 289.581V339.558H446.899V274.248C447.044 274.175 447.116 274.103 447.189 273.958C447.261 273.814 448.997 271.282 448.274 267.883C447.84 265.496 446.249 263.326 443.717 261.446C444.151 260.723 444.44 259.566 444.44 258.336C444.44 256.239 442.994 254.647 442.922 254.575C442.777 254.43 442.56 254.286 442.343 254.286C442.126 254.286 441.909 254.358 441.764 254.503C441.692 254.575 440.246 256.166 440.246 258.264C440.246 259.421 440.462 260.506 440.896 261.301C432.941 267.087 436.629 273.741 436.702 273.814C436.774 273.958 436.919 274.031 437.063 274.103V345.488H438.654V341.004H602.255V272.367C602.399 272.295 602.472 272.223 602.544 272.078C602.689 271.933 604.28 269.546 603.629 266.22ZM442.343 256.6C442.632 257.106 442.849 257.757 442.849 258.408C442.849 259.566 442.632 260.289 442.415 260.65C442.343 260.65 442.343 260.65 442.271 260.65H442.198C441.981 260.289 441.764 259.566 441.764 258.408C441.837 257.757 442.054 257.106 442.343 256.6ZM445.308 339.558H438.582V274.392H445.308V339.558ZM446.104 272.729H437.859C437.28 271.427 435.906 266.798 442.198 262.459C442.271 262.459 442.271 262.459 442.343 262.459C444.802 264.194 446.321 266.147 446.755 268.245C447.189 270.342 446.466 272.078 446.104 272.729ZM464.981 277.285C465.053 277.502 465.125 277.792 465.125 278.081C465.125 278.515 465.053 278.949 464.981 279.166C464.909 278.876 464.836 278.515 464.836 278.081C464.836 277.792 464.909 277.502 464.981 277.285ZM466.861 339.558H462.522V289.725H466.861V339.558ZM467.512 288.134H461.871C461.437 287.049 460.786 284.084 464.909 281.191C466.644 282.348 467.585 283.722 467.874 285.169C468.163 286.471 467.802 287.556 467.512 288.134ZM485.666 339.558H476.77V305.058H485.666V339.558ZM494.707 284.807C494.924 285.313 495.213 285.964 495.213 286.615C495.213 287.773 494.996 288.496 494.779 288.857C494.707 288.857 494.707 288.857 494.634 288.857C494.417 288.496 494.2 287.773 494.2 286.615C494.2 285.892 494.49 285.241 494.707 284.807ZM497.672 339.558H490.946V302.527H497.672V339.558ZM498.468 300.936H490.222C489.644 299.634 488.27 295.005 494.562 290.666C494.634 290.666 494.634 290.666 494.707 290.666C497.166 292.401 498.685 294.354 499.119 296.452C499.552 298.477 498.829 300.213 498.468 300.936ZM540.416 339.558H502.952V300.502H540.416V339.558ZM540.416 298.911H502.952V296.018H540.416V298.911ZM540.416 294.426H502.952V291.606C504.832 290.955 512.282 288.713 522.046 288.713C528.483 288.713 534.703 289.653 540.489 291.606V294.426H540.416ZM540.416 290.015C534.63 288.134 528.41 287.194 521.973 287.194C512.716 287.194 505.483 289.147 502.879 289.942V286.398C504.832 285.82 512.282 283.65 522.118 283.65C528.483 283.65 534.63 284.59 540.344 286.326V290.015H540.416ZM522.19 282.059C512.499 282.059 505.122 284.084 502.59 284.807C501.65 282.131 499.119 271.933 509.027 263.76C516.332 257.757 520.455 253.707 520.816 252.116C520.888 251.754 520.744 251.32 520.382 251.176C519.876 250.959 519.659 250.742 519.659 250.597C519.659 250.453 519.876 250.236 520.382 250.019C520.672 249.874 520.889 249.585 520.889 249.295V248.066C520.889 247.776 520.672 247.487 520.382 247.343C519.876 247.126 519.659 246.909 519.659 246.764C519.659 246.619 519.876 246.402 520.382 246.185C520.672 246.041 520.889 245.751 520.889 245.462V245.245C520.599 242.931 520.672 239.459 521.901 238.736C523.131 239.531 523.203 243.148 522.841 245.39V245.462C522.841 245.751 523.058 246.041 523.348 246.185C523.854 246.402 524.071 246.692 524.071 246.764C524.071 246.836 523.926 247.126 523.348 247.343C523.058 247.487 522.841 247.776 522.841 248.066V249.368C522.841 249.657 523.058 249.946 523.348 250.091C523.854 250.308 524.071 250.597 524.071 250.67C524.071 250.742 523.926 251.031 523.42 251.248C523.058 251.393 522.841 251.754 522.914 252.116C523.203 253.707 527.325 257.757 534.703 263.76C544.756 272.078 542.08 282.203 541.14 284.807C535.064 282.999 528.772 282.059 522.19 282.059ZM549.457 284.807C549.746 285.313 549.963 285.964 549.963 286.615C549.963 287.773 549.746 288.496 549.529 288.857C549.529 288.857 549.457 288.857 549.385 288.857C549.385 288.857 549.385 288.857 549.312 288.857C549.095 288.496 548.879 287.773 548.879 286.615C548.951 285.892 549.168 285.241 549.457 284.807ZM552.422 339.558H545.696V302.527H552.422V339.558ZM553.218 300.936H544.973C544.394 299.634 543.02 295.005 549.312 290.666C549.385 290.666 549.385 290.666 549.457 290.666C551.916 292.401 553.435 294.354 553.869 296.452C554.303 298.477 553.58 300.213 553.218 300.936ZM566.164 339.558H557.268V305.058H566.164V339.558ZM577.953 277.285C578.026 277.502 578.098 277.792 578.098 278.081C578.098 278.515 578.026 278.949 577.953 279.166C577.881 278.876 577.809 278.515 577.809 278.081C577.809 277.792 577.881 277.502 577.953 277.285ZM579.834 339.558H575.494V289.725H579.834V339.558ZM580.485 288.134H574.843C574.409 286.977 573.831 284.084 577.881 281.191C579.545 282.348 580.557 283.722 580.846 285.169C581.136 286.471 580.774 287.556 580.485 288.134ZM597.626 254.864C597.915 255.371 598.132 255.949 598.132 256.673C598.132 257.83 597.915 258.553 597.698 258.915C597.626 258.915 597.626 258.915 597.554 258.915H597.481C597.264 258.553 597.047 257.83 597.047 256.673C597.12 256.022 597.337 255.371 597.626 254.864ZM600.591 339.558H593.865V272.656H600.591V339.558ZM601.387 270.993H593.142C592.563 269.691 591.189 265.062 597.481 260.723C597.554 260.723 597.554 260.723 597.626 260.723C600.085 262.459 601.604 264.411 602.038 266.509C602.472 268.606 601.748 270.27 601.387 270.993Z" fill="#1FAEED"/>
<path d="M670.385 205.043C669.951 205.043 669.59 205.405 669.59 205.839L665.901 330.889C665.901 331.323 666.263 331.685 666.697 331.685C667.131 331.685 667.492 331.323 667.492 330.889L671.181 205.839C671.181 205.405 670.819 205.043 670.385 205.043Z" fill="#1FAEED"/>
<path d="M685.284 190.65C685.284 188.046 683.115 185.587 679.498 184.141C679.571 183.924 679.571 183.707 679.571 183.49C679.571 182.839 679.354 182.26 678.992 181.682C679.571 181.031 679.86 180.308 679.86 179.512C679.86 177.776 678.414 176.257 676.027 175.389L674.87 146.17C676.533 145.519 677.546 144.434 677.546 143.205C677.546 141.903 676.461 140.745 674.653 140.167L672.627 88.0925C672.627 87.6585 672.266 87.2969 671.832 87.2969C671.398 87.2969 671.036 87.6585 671.036 88.0925L669.228 140.095C667.275 140.673 666.118 141.83 666.118 143.205C666.118 144.506 667.203 145.664 669.011 146.242L667.999 175.317C665.395 176.113 663.804 177.704 663.804 179.512C663.804 180.163 664.021 180.814 664.382 181.392C663.876 182.043 663.587 182.767 663.587 183.562C663.587 183.779 663.587 183.996 663.659 184.213C660.043 185.66 657.873 188.119 657.873 190.722C657.873 192.531 658.958 194.339 660.911 195.713C660.404 196.364 660.115 197.087 660.115 197.883C660.115 200.342 662.936 202.439 667.275 203.307L661.851 341.015H662.213H663.08H663.442L668.867 202.801L668.939 201.065H674.219L680.656 341.015H681.017H681.885H682.247L675.882 203.235C680.222 202.367 683.042 200.269 683.042 197.81C683.042 197.015 682.753 196.291 682.247 195.641C684.2 194.194 685.284 192.458 685.284 190.65ZM675.737 200.125C675.737 199.691 675.376 199.329 674.942 199.329H668.143C667.709 199.329 667.348 199.691 667.348 200.125L667.275 201.644C663.948 200.92 661.634 199.401 661.634 197.81C661.634 197.376 661.851 196.942 662.14 196.508C664.672 197.883 667.999 198.606 671.47 198.606C674.942 198.606 678.269 197.883 680.8 196.508C681.162 196.942 681.307 197.376 681.307 197.81C681.307 199.401 678.992 200.92 675.665 201.644L675.737 200.125ZM680.945 194.628C680.8 194.7 680.656 194.773 680.583 194.845C680.439 194.917 680.294 194.99 680.222 195.062C677.907 196.291 674.87 196.942 671.687 196.942C668.433 196.942 665.395 196.291 663.08 195.062C662.791 194.917 662.574 194.773 662.285 194.628C660.477 193.471 659.537 192.097 659.537 190.65C659.537 188.553 661.562 186.528 664.961 185.37C666.914 184.647 669.228 184.285 671.615 184.285H671.832C674.146 184.285 676.316 184.719 678.269 185.37C678.341 185.37 678.414 185.443 678.414 185.443C681.74 186.672 683.766 188.625 683.766 190.722C683.693 192.097 682.753 193.471 680.945 194.628ZM665.395 179.44C665.395 178.355 666.769 177.198 668.794 176.619H674.942C676.967 177.198 678.269 178.282 678.269 179.44C678.269 179.801 678.124 180.163 677.907 180.452C676.388 179.295 674.074 178.644 671.615 178.644C669.3 178.644 667.131 179.223 665.612 180.235C665.467 180.018 665.395 179.729 665.395 179.44ZM670.747 140.673L671.832 109.79L673.061 140.745C673.061 141.107 673.351 141.396 673.64 141.469C674.942 141.758 675.954 142.481 675.954 143.132C675.954 143.783 675.087 144.434 673.857 144.723C673.495 144.796 673.206 145.157 673.278 145.519L674.436 174.883C673.64 174.738 672.772 174.666 671.904 174.666C671.109 174.666 670.385 174.738 669.662 174.883L670.675 145.664C670.675 145.302 670.458 144.94 670.096 144.868C668.794 144.579 667.782 143.855 667.782 143.205C667.782 142.554 668.794 141.83 670.241 141.469C670.53 141.324 670.747 141.035 670.747 140.673ZM665.178 183.49C665.178 182.839 665.612 182.333 666.046 181.971C667.203 180.958 669.373 180.308 671.615 180.308C674.074 180.308 676.244 181.031 677.401 182.188C677.835 182.622 678.052 183.056 678.052 183.562C678.052 183.634 678.052 183.634 678.052 183.707C676.171 183.128 674.002 182.839 671.832 182.767H671.615C669.373 182.767 667.131 183.056 665.178 183.707C665.178 183.562 665.178 183.49 665.178 183.49Z" fill="#1FAEED"/>
</svg>
